<?xml version="1.0" encoding="utf-8"?>
<!-- Generator: Adobe Illustrator 27.8.0, SVG Export Plug-In . SVG Version: 6.00 Build 0)  -->
<svg version="1.1" id="Layer_1" xmlns="http://www.w3.org/2000/svg" xmlns:xlink="http://www.w3.org/1999/xlink" x="0px" y="0px"
	 viewBox="0 0 42.5 41.5" style="enable-background:new 0 0 42.5 41.5;" xml:space="preserve">
<style type="text/css">
	.st0{fill:#FFFFFF;}
</style>
<path d="M3.8,38.5c0.1,0.5,0.5,0.8,1,0.8c0.7,0,0.9-0.4,0.9-0.8c0-0.4-0.3-0.7-1-0.9c-1-0.3-1.3-0.6-1.3-1.2c0-0.6,0.4-1.2,1.4-1.2
	c1,0,1.4,0.6,1.4,1.2H5.7c-0.1-0.4-0.3-0.8-0.9-0.8C4.3,35.8,4,36,4,36.4c0,0.4,0.2,0.5,0.9,0.8c1.1,0.3,1.4,0.6,1.4,1.3
	c0,0.8-0.6,1.3-1.5,1.3c-0.8,0-1.5-0.4-1.6-1.3H3.8z"/>
<path d="M6.8,35.4h0.7v-1.3h0.5v1.3H9v0.5H8.1v2.9c0,0.4,0.1,0.5,0.5,0.5c0.1,0,0.3,0,0.4,0v0.4c-0.1,0.1-0.4,0.1-0.5,0.1
	c-0.5,0-0.9-0.2-0.9-0.9v-3H6.8V35.4z"/>
<path d="M23,35.4c0.5,2,0.9,3.1,1,3.7h0c0.1-0.5,0.3-1.2,1-3.7h0.6c0.7,2.4,0.9,3.2,1,3.7h0c0.1-0.5,0.4-1.4,1-3.7h0.6l-1.3,4.3
	h-0.6c-0.4-1.4-0.8-3-1-3.6h0c-0.1,0.6-0.5,2-1,3.6h-0.6l-1.2-4.3H23z"/>
<path d="M37.4,36.9c0-0.7,0-1.3,0-1.5h0.5c0,0.2,0,0.5,0,0.9c0.2-0.6,0.7-1,1.4-1v0.6c-1,0.1-1.4,0.7-1.4,1.6v2.2h-0.5V36.9z"/>
<g>
	<path d="M10.5,1.8c0.2-0.3,0.5-0.5,0.9-0.5c0.1,0,0.2,0,0.3,0c1.6,0.4,3.7,2.7,7.3,7.2l0.4-4.8L19.7,0h-9.1C9.9,0,9.1,0,8.2,0
		C6.1,0,3.6,0.3,1.8,1.9C0.9,2.7,0.3,4,0.3,5.3v0.1c0.2,4.1,5.5,5.1,9.4,5.3C0,11.2,0,19.5,0,19.5c0,4.5,2.6,8.8,10.7,8.8h8.4
		l-0.7-13.1c0,0-2.7,2.4-6.3,2.5H12c-1,0-2-0.7-2-1.7c0-0.2,0.1-0.5,0.2-0.7v0c1.3-2.5,4.2-3,6.4-3c1.1,0,2,0.1,2.3,0.2v-2
		c-7.5-3.1-8.6-6.2-8.6-7.7C10.3,2.2,10.5,1.9,10.5,1.8L10.5,1.8z"/>
	<path d="M24.7,26c-1.4-1.4-2.7-3.4-2.7-7.1v-0.7c0.2-4.7,5.1-8.4,9.2-11.3c3.6-2.6,3.9-5.3,3.9-5.5c0,0-4.1,0.6-8.1,4.8
		c-1.3,1.3-2.6,2.8-3.8,4.7l-0.2-2.4L22.6,0h10.9c6.2,0,8.8,3.2,9,7.1c0,0.3,0,0.5,0,0.8c0,3.2-1.5,5.7-5.7,8.7
		c-5.3,3.6-7.1,5.4-7.7,7.2c-0.1,0.3-0.2,0.8-0.2,1.3c0,0.6,0.2,1.1,0.7,1.5c0.2,0.1,0.5,0.2,0.9,0.2c1.1,0,3-0.6,4.8-2.3
		c4.3-4.1,6.1-9.5,6.1-9.5l0.7,13.2H31.3C27.9,28.3,26.3,27.6,24.7,26"/>
</g>
<path d="M12.7,38.8v-2.2c0-0.9-0.6-1.3-1.4-1.3c-1.1,0-1.5,0.5-1.6,1.3h0.5c0.1-0.5,0.3-0.8,1-0.8c0.8,0,0.9,0.5,0.9,0.9v0.5
	c-0.2,0-0.4,0-0.7,0c-1.5,0-1.9,0.7-1.9,1.3c0,0.6,0.3,1.3,1.3,1.3c0.7,0,1.2-0.3,1.3-0.8c0,0.3,0,0.6,0.1,0.7h0.5
	C12.7,39.5,12.7,39.1,12.7,38.8z"/>
<path class="st0" d="M12.1,37.6c0,1-0.3,1.6-1.2,1.6c-0.6,0-0.9-0.4-0.9-0.8c0-0.4,0.2-0.9,1.4-0.9C11.7,37.6,12,37.6,12.1,37.6
	L12.1,37.6z"/>
<path d="M16.7,35.4c0,0.1,0,0.4,0,0.6c-0.1-0.4-0.5-0.7-1.2-0.7c-1,0-1.7,0.8-1.7,2.2c0,1.3,0.6,2.2,1.6,2.2c0.7,0,1.1-0.3,1.3-0.8
	v0.4c0,1-0.2,1.7-1.2,1.7c-0.6,0-1-0.2-1.1-0.8h-0.5c0.1,0.6,0.4,1.2,1.6,1.2c1.2,0,1.8-0.7,1.8-2.1v-2.8c0-0.6,0-1,0-1.2H16.7z"/>
<path class="st0" d="M15.5,39.2c-0.7,0-1.2-0.6-1.2-1.7c0-1,0.4-1.7,1.2-1.7c0.9,0,1.2,0.5,1.2,1.7C16.7,38.7,16.4,39.2,15.5,39.2z"
	/>
<path d="M21.7,37.3c0-0.9-0.4-2-1.7-2c-1.3,0-1.8,1.2-1.8,2.2c0,1.1,0.4,2.2,1.7,2.2c1.1,0,1.5-0.8,1.6-1.3h-0.5
	c-0.1,0.2-0.3,0.8-1.1,0.8c-0.8,0-1.2-0.7-1.2-1.7h2.9L21.7,37.3z"/>
<path class="st0" d="M18.9,37.2c0-0.6,0.3-1.4,1.2-1.4c0.8,0,1.1,0.6,1.2,1.4H18.9z"/>
<path d="M32.1,37.3c0-0.9-0.4-2-1.7-2c-1.3,0-1.8,1.2-1.8,2.2c0,1.1,0.4,2.2,1.7,2.2c1.1,0,1.5-0.8,1.6-1.3h-0.5
	c-0.1,0.2-0.3,0.8-1.1,0.8c-0.8,0-1.2-0.7-1.2-1.7h2.9L32.1,37.3z"/>
<path class="st0" d="M29.2,37.2c0-0.6,0.3-1.4,1.2-1.4c0.8,0,1.1,0.6,1.2,1.4H29.2z"/>
<path d="M36,38.8v-2.2c0-0.9-0.6-1.3-1.4-1.3c-1.1,0-1.5,0.5-1.6,1.3h0.5c0.1-0.5,0.3-0.8,1-0.8c0.8,0,0.9,0.5,0.9,0.9v0.5
	c-0.2,0-0.4,0-0.7,0c-1.5,0-1.9,0.7-1.9,1.3c0,0.6,0.3,1.3,1.3,1.3c0.7,0,1.2-0.3,1.3-0.8c0,0.3,0,0.6,0.1,0.7h0.5
	C36.1,39.5,36,39.1,36,38.8z"/>
<path class="st0" d="M35.5,37.6c0,1-0.3,1.6-1.2,1.6c-0.6,0-0.9-0.4-0.9-0.8c0-0.4,0.2-0.9,1.4-0.9C35.1,37.6,35.3,37.6,35.5,37.6
	L35.5,37.6z"/>
</svg>
