<?xml version="1.0" encoding="utf-8"?>
<!-- Generator: Adobe Illustrator 27.8.0, SVG Export Plug-In . SVG Version: 6.00 Build 0)  -->
<svg version="1.1" id="Layer_1" xmlns="http://www.w3.org/2000/svg" xmlns:xlink="http://www.w3.org/1999/xlink" x="0px" y="0px"
	 viewBox="0 0 45.5 28.6" style="enable-background:new 0 0 45.5 28.6;" xml:space="preserve">
<style type="text/css">
	.st0{fill:#F13E37;}
</style>
<path class="st0" d="M11.7,1.8c0.2-0.3,0.6-0.5,0.9-0.5c0.1,0,0.2,0,0.3,0C14.8,1.8,17,4,21,8.6l0.4-4.8L21.8,0H11.8
	C11,0,10.1,0,9.2,0C6.7,0,4,0.3,2,1.9C1,2.8,0.3,4,0.3,5.3v0.1c0.2,4.1,6.2,5.1,10.5,5.4C0,11.3,0,19.7,0,19.7
	c0,4.5,2.9,8.9,11.9,8.9h9.4l-0.8-13.3c0,0-3,2.4-7,2.5h-0.1c-1.1,0-2.2-0.7-2.2-1.7c0-0.2,0.1-0.5,0.2-0.7v0c1.4-2.5,4.7-3,7.1-3
	c1.2,0,2.2,0.1,2.5,0.2v-2c-8.3-3.1-9.5-6.2-9.5-7.8C11.5,2.2,11.7,1.9,11.7,1.8L11.7,1.8L11.7,1.8z"/>
<path class="st0" d="M25.7,26.3c-1.5-1.4-3-3.5-3-7.2v-0.7c0.3-4.7,5.7-8.4,10.2-11.4c4-2.6,4.4-5.3,4.4-5.5c0,0-4.5,0.6-9,4.9
	c-1.4,1.3-2.9,2.8-4.2,4.7l-0.2-2.4L23.3,0h12.1c6.9,0,9.8,3.2,10,7.1c0,0.3,0,0.5,0,0.8c0,3.2-1.6,5.8-6.4,8.8
	c-5.9,3.6-7.9,5.5-8.5,7.3c-0.1,0.3-0.3,0.8-0.3,1.3c0,0.6,0.2,1.1,0.8,1.5c0.2,0.1,0.6,0.2,1,0.2c1.3,0,3.3-0.6,5.3-2.3
	c4.8-4.1,6.8-9.5,6.8-9.5l0.8,13.3H33C29.2,28.6,27.4,27.9,25.7,26.3"/>
</svg>
