<?xml version="1.0" encoding="utf-8"?>
<!-- Generator: Adobe Illustrator 27.8.0, SVG Export Plug-In . SVG Version: 6.00 Build 0)  -->
<svg version="1.1" id="Layer_1" xmlns="http://www.w3.org/2000/svg" xmlns:xlink="http://www.w3.org/1999/xlink" x="0px" y="0px"
	 viewBox="0 0 42.5 28.3" style="enable-background:new 0 0 42.5 28.3;" xml:space="preserve">
<path d="M10.5,1.8c0.2-0.3,0.5-0.5,0.9-0.5c0.1,0,0.2,0,0.3,0c1.6,0.4,3.7,2.7,7.3,7.2l0.4-4.8L19.7,0h-9.1C9.9,0,9.1,0,8.2,0
	C6.1,0,3.6,0.3,1.8,1.9C0.9,2.7,0.3,4,0.3,5.3v0.1c0.2,4.1,5.5,5.1,9.4,5.3C0,11.2,0,19.5,0,19.5c0,4.5,2.6,8.8,10.7,8.8h8.4
	l-0.7-13.1c0,0-2.7,2.4-6.3,2.5H12c-1,0-2-0.7-2-1.7c0-0.2,0.1-0.5,0.2-0.7v0c1.3-2.5,4.2-3,6.4-3c1.1,0,2,0.1,2.3,0.2v-2
	c-7.5-3.1-8.6-6.2-8.6-7.7C10.3,2.2,10.5,1.9,10.5,1.8L10.5,1.8z"/>
<path d="M24.7,26c-1.4-1.4-2.7-3.4-2.7-7.1v-0.7c0.2-4.7,5.1-8.4,9.2-11.3c3.6-2.6,3.9-5.3,3.9-5.5c0,0-4.1,0.6-8.1,4.8
	c-1.3,1.3-2.6,2.8-3.8,4.7l-0.2-2.4L22.6,0h10.9c6.2,0,8.8,3.2,9,7.1c0,0.3,0,0.5,0,0.8c0,3.2-1.5,5.7-5.7,8.7
	c-5.3,3.6-7.1,5.4-7.7,7.2c-0.1,0.3-0.2,0.8-0.2,1.3c0,0.6,0.2,1.1,0.7,1.5c0.2,0.1,0.5,0.2,0.9,0.2c1.1,0,3-0.6,4.8-2.3
	c4.3-4.1,6.1-9.5,6.1-9.5l0.7,13.2H31.3C27.9,28.3,26.3,27.6,24.7,26"/>
</svg>
