<?xml version="1.0" encoding="UTF-8"?><svg id="Layer_1" xmlns="http://www.w3.org/2000/svg" width="15mm" height="10mm" viewBox="0 0 42.52 28.35"><path d="m10.51,1.76c.19-.3.55-.47.86-.47.08,0,.2,0,.27.04,1.64.43,3.67,2.65,7.31,7.24l.39-4.8.31-3.73h-9.06c-.66,0-1.48-.04-2.34-.04C6.06,0,3.56.26,1.76,1.93.86,2.74.27,3.98.27,5.31v.13c.16,4.11,5.55,5.1,9.41,5.31C0,11.18,0,19.53,0,19.53c0,4.5,2.62,8.82,10.7,8.82h8.44l-.7-13.15s-2.73,2.36-6.33,2.53h-.08c-1.02,0-1.95-.73-1.95-1.71,0-.21.08-.47.2-.73v-.04c1.29-2.53,4.22-3,6.37-3,1.06,0,1.95.13,2.27.17v-1.97c-7.46-3.08-8.59-6.17-8.59-7.71,0-.51.16-.86.2-.94v-.04Z" fill="#1d1d1b" stroke-width="0"/><path d="m24.75,26.03c-1.37-1.41-2.74-3.43-2.74-7.11v-.73c.24-4.67,5.12-8.35,9.18-11.26,3.59-2.61,3.95-5.27,3.95-5.48,0,0-4.06.64-8.09,4.84-1.29,1.28-2.62,2.78-3.79,4.71l-.16-2.36L22.6.04h10.86c6.25,0,8.79,3.21,9.02,7.06,0,.26.04.51.04.77,0,3.21-1.48,5.74-5.74,8.69-5.27,3.6-7.11,5.44-7.66,7.24-.08.34-.23.81-.23,1.33,0,.56.16,1.11.74,1.5.2.13.51.22.94.22,1.13,0,3.01-.6,4.81-2.27,4.34-4.07,6.09-9.46,6.09-9.46l.7,13.19h-10.82c-3.44,0-5.04-.68-6.6-2.27" fill="#1d1d1b" stroke-width="0"/></svg>