<?xml version="1.0" encoding="UTF-8"?><svg id="Layer_1" xmlns="http://www.w3.org/2000/svg" width="16.04mm" height="10.09mm" viewBox="0 0 45.47 28.61"><path d="m11.68,1.77c.22-.3.61-.47.95-.47.09,0,.22,0,.3.04,1.82.43,4.08,2.68,8.12,7.3l.43-4.84.35-3.76h-10.07c-.74,0-1.65-.04-2.61-.04C6.73,0,3.95.26,1.95,1.94c-1,.82-1.65,2.07-1.65,3.41v.13c.17,4.15,6.17,5.14,10.47,5.36C0,11.28,0,19.7,0,19.7c0,4.54,2.91,8.9,11.9,8.9h9.38l-.78-13.27s-3.04,2.38-7.03,2.55h-.09c-1.13,0-2.17-.73-2.17-1.73,0-.22.09-.47.22-.73v-.04c1.43-2.55,4.69-3.03,7.08-3.03,1.17,0,2.17.13,2.52.17v-1.99c-8.29-3.11-9.55-6.22-9.55-7.78,0-.52.17-.86.22-.95v-.04Z" fill="#231f20" stroke-width="0"/><path d="m25.71,26.27c-1.52-1.43-3.04-3.46-3.04-7.17v-.74c.26-4.71,5.69-8.43,10.2-11.36,4-2.64,4.39-5.32,4.39-5.53,0,0-4.52.65-8.99,4.88-1.43,1.3-2.91,2.81-4.21,4.75l-.17-2.38L23.33.04h12.07c6.95,0,9.77,3.24,10.03,7.13,0,.26.04.52.04.78,0,3.24-1.65,5.79-6.38,8.77-5.86,3.63-7.9,5.49-8.51,7.3-.09.35-.26.82-.26,1.34,0,.56.17,1.12.82,1.51.22.13.57.22,1.04.22,1.26,0,3.34-.6,5.34-2.29,4.82-4.1,6.77-9.55,6.77-9.55l.78,13.31h-12.03c-3.82,0-5.6-.69-7.34-2.29" fill="#231f20" stroke-width="0"/></svg>