<?xml version="1.0" encoding="utf-8"?>
<!-- Generator: Adobe Illustrator 27.8.0, SVG Export Plug-In . SVG Version: 6.00 Build 0)  -->
<svg version="1.1" id="Layer_1" xmlns="http://www.w3.org/2000/svg" xmlns:xlink="http://www.w3.org/1999/xlink" x="0px" y="0px"
	 viewBox="0 0 78.7 78.7" style="enable-background:new 0 0 78.7 78.7;" xml:space="preserve">
<style type="text/css">
	.st0{fill:#FFFFFF;}
</style>
<path class="st0" d="M78.4,20c-0.2-4.7-1-7.2-1.7-8.9c-0.9-2.2-1.9-3.8-3.6-5.5c-1.7-1.7-3.3-2.7-5.5-3.6c-1.7-0.7-4.2-1.4-8.9-1.6
	C53.7,0.1,52.2,0,39.3,0c-1.6,0-3,0-4.3,0l0,0c-9,0-10.7,0.1-15.1,0.3c-4.7,0.2-7.2,1-8.9,1.6C8.8,2.8,7.2,3.8,5.5,5.5
	S2.8,8.8,1.9,11c-0.7,1.7-1.4,4.2-1.6,8.9C0,25,0,26.5,0,39.3S0,53.7,0.3,58.7c0.2,4.7,1,7.2,1.6,8.9c0.9,2.2,1.9,3.8,3.6,5.5
	s3.3,2.7,5.5,3.6c1.7,0.7,4.2,1.4,8.9,1.7c5.1,0.2,6.6,0.3,19.4,0.3s14.3-0.1,19.4-0.3c4.7-0.2,7.2-1,8.9-1.7
	c2.2-0.9,3.8-1.9,5.5-3.6c1.7-1.7,2.7-3.3,3.6-5.5c0.7-1.7,1.4-4.2,1.7-8.9c0.2-5.1,0.3-6.6,0.3-19.4S78.6,25,78.4,20L78.4,20z
	 M39.3,64c-13.6,0-24.6-11-24.6-24.7s11-24.6,24.6-24.6l0,0l0,0l0,0C53,14.7,64,25.7,64,39.4S53,64,39.3,64z M65,19.5
	c-3.2,0-5.8-2.6-5.8-5.8S61.8,8,65,8l0,0c3.2,0,5.8,2.6,5.8,5.8S68.2,19.5,65,19.5z"/>
<circle class="st0" cx="39.3" cy="39.4" r="16"/>
</svg>
